<svg id="Warstwa_1" data-name="Warstwa 1" xmlns="http://www.w3.org/2000/svg" viewBox="0 0 35.07 39.83"><defs><style>.cls-1{stroke:#000;stroke-miterlimit:10;}</style></defs><path class="cls-1" d="M27.76,39.43H12A5.74,5.74,0,0,1,6.31,33.7V16.13a.92.92,0,0,1,1-1,.92.92,0,0,1,1,1V33.7A3.79,3.79,0,0,0,12,37.49H27.76a3.79,3.79,0,0,0,3.79-3.79V16.13a1,1,0,0,1,1.94,0V33.7A5.8,5.8,0,0,1,27.76,39.43ZM32.91,5.35H25.53a5.71,5.71,0,0,0-11.26,0H6.89a3.94,3.94,0,0,0-4,4,3.86,3.86,0,0,0,4,3.89H33a3.94,3.94,0,1,0-.1-7.87Zm-13-2.81a3.63,3.63,0,0,1,3.59,2.81H16.21A3.84,3.84,0,0,1,19.9,2.54Zm13,8.73h-26a2,2,0,1,1,0-4.07H33a2.05,2.05,0,0,1,2,2A2.14,2.14,0,0,1,32.91,11.27Z" transform="translate(-2.41 -0.1)"/><path d="M12.9,35.1a.94.94,0,0,1-1-1V17.4a1,1,0,0,1,2,0V34.1A1.08,1.08,0,0,1,12.9,35.1Zm14,0a.94.94,0,0,1-1-1V17.4a1,1,0,0,1,2,0V34.1A1.08,1.08,0,0,1,26.9,35.1Zm-7,0a.94.94,0,0,1-1-1V17.4a1,1,0,0,1,2,0V34.1A1.08,1.08,0,0,1,19.9,35.1Z" transform="translate(-2.41 -0.1)"/></svg>